<svg width="88" height="31" viewBox="0 0 88 31" fill="none" xmlns="http://www.w3.org/2000/svg">
<g clip-path="url(#clip0_1_1111)">
<path d="M7.88562 3.31663L22.6404 2.22756C24.4523 2.0718 24.9185 2.17614 26.0573 3.00531L30.7673 6.32328C31.5443 6.89384 31.8034 7.04918 31.8034 7.67116V25.869C31.8034 27.0095 31.3889 27.684 29.9397 27.7872L12.805 28.8242C11.7171 28.8762 11.1994 28.7208 10.6297 27.9946L7.1612 23.4841C6.5397 22.6538 6.28125 22.0327 6.28125 21.306V5.13052C6.28125 4.19786 6.69587 3.4199 7.88562 3.31663Z" fill="white"/>
<path fill-rule="evenodd" clip-rule="evenodd" d="M22.6404 2.22756L7.88562 3.31662C6.69587 3.4199 6.28125 4.19786 6.28125 5.13051V21.306C6.28125 22.0327 6.5397 22.6538 7.1612 23.4841L10.6297 27.9946C11.1994 28.7208 11.7171 28.8762 12.805 28.8242L29.9397 27.7872C31.3889 27.684 31.8034 27.0095 31.8034 25.869V7.67116C31.8034 7.08161 31.5707 6.91131 30.8846 6.40927C30.8468 6.38165 30.8077 6.35302 30.7673 6.32327L26.0573 3.00531C24.9185 2.17614 24.4523 2.0718 22.6404 2.22756ZM13.1935 7.37281C11.7946 7.46749 11.4767 7.48901 10.6823 6.84213L8.662 5.23499C8.45595 5.02716 8.5593 4.76792 9.07661 4.7165L23.2617 3.6795C24.4521 3.57559 25.0732 3.99102 25.5393 4.35376L27.9723 6.11666C28.0759 6.16829 28.3343 6.47896 28.0236 6.47896L13.3741 7.36064L13.1935 7.37281ZM11.5618 25.7132V10.2639C11.5618 9.59 11.7689 9.27875 12.3897 9.22641L29.2142 8.24173C29.7847 8.18989 30.0432 8.55305 30.0432 9.22641V24.5721C30.0432 25.2466 29.9394 25.8177 29.0072 25.869L12.9075 26.8027C11.9757 26.8541 11.5618 26.5435 11.5618 25.7132ZM27.4554 11.0927C27.5587 11.5598 27.4554 12.0265 26.9886 12.0789L26.2128 12.2338V23.6395C25.5393 24.0023 24.9182 24.2097 24.4007 24.2097C23.5722 24.2097 23.3647 23.9503 22.744 23.1731L17.6699 15.1891V22.9138L19.2755 23.277C19.2755 23.277 19.2755 24.2097 17.9801 24.2097L14.4089 24.4174C14.3052 24.2097 14.4089 23.6917 14.7712 23.5879L15.7031 23.3291V13.1155L14.4092 13.0116C14.3054 12.5445 14.5638 11.8711 15.2892 11.8188L19.1202 11.56L24.4007 19.648V12.4931L23.0544 12.3382C22.9511 11.7672 23.3647 11.3526 23.8824 11.3012L27.4554 11.0927Z" fill="black"/>
<path fill-rule="evenodd" clip-rule="evenodd" d="M7.78556 2.07063L22.5409 0.981525C23.4373 0.904629 24.1832 0.870299 24.8782 1.02816C25.6155 1.19565 26.1832 1.55124 26.7851 1.98899L31.4971 5.30845L31.507 5.3157C31.5449 5.34353 31.5844 5.37225 31.6251 5.40184C31.9202 5.61631 32.2768 5.87545 32.5237 6.162C32.9233 6.62578 33.0534 7.13236 33.0534 7.67118V25.869C33.0534 26.5552 32.9357 27.3802 32.354 28.0422C31.7615 28.7164 30.9118 28.9711 30.0284 29.034L30.0218 29.0345L12.8726 30.0724L12.8647 30.0729C12.2786 30.1009 11.6718 30.0867 11.0936 29.8753C10.4724 29.648 10.024 29.2479 9.64614 28.7661L9.64243 28.7614L6.16537 24.2397L6.16052 24.2332C5.45216 23.2869 5.03125 22.4057 5.03125 21.306V5.13054C5.03125 4.49773 5.16985 3.7623 5.65116 3.14441C6.15801 2.49375 6.90871 2.14675 7.77752 2.07133L7.78556 2.07063ZM26.0573 3.00533C24.9185 2.17616 24.4523 2.07182 22.6404 2.22759L7.88562 3.31665C6.69587 3.41992 6.28125 4.19788 6.28125 5.13054V21.306C6.28125 22.0328 6.5397 22.6539 7.1612 23.4841L10.6297 27.9946C11.1994 28.7209 11.7171 28.8763 12.805 28.8243L29.9397 27.7872C31.3889 27.684 31.8034 27.0095 31.8034 25.869V7.67118C31.8034 7.08164 31.5707 6.91133 30.8846 6.4093C30.8468 6.38167 30.8077 6.35305 30.7673 6.3233L26.0573 3.00533Z" fill="#040404"/>
<path d="M42.0389 21.0566V14.0248H42.1606L47.2304 21.0566H48.8273V10.7236H47.0514V17.7484H46.9297L41.8599 10.7236H40.2559V21.0566H42.0389Z" fill="#111111"/>
<path d="M53.8441 21.2142C56.1857 21.2142 57.6107 19.6818 57.6107 17.1397C57.6107 14.6048 56.1785 13.0652 53.8441 13.0652C51.5168 13.0652 50.0776 14.6119 50.0776 17.1397C50.0776 19.6818 51.4954 21.2142 53.8441 21.2142ZM53.8441 19.7247C52.6053 19.7247 51.8964 18.7795 51.8964 17.1397C51.8964 15.507 52.6053 14.5547 53.8441 14.5547C55.0757 14.5547 55.7847 15.507 55.7847 17.1397C55.7847 18.7795 55.0829 19.7247 53.8441 19.7247Z" fill="#111111"/>
<path d="M59.2333 11.3037V13.2729H57.9945V14.6907H59.2333V18.9657C59.2333 20.4838 59.9494 21.0925 61.7468 21.0925C62.0904 21.0925 62.4198 21.0566 62.6777 21.0065V19.6173C62.4628 19.6388 62.3268 19.6531 62.0761 19.6531C61.3314 19.6531 61.002 19.3095 61.002 18.536V14.6907H62.6777V13.2729H61.002V11.3037H59.2333Z" fill="#111111"/>
<path d="M63.7418 21.0566H65.5104V13.2228H63.7418V21.0566ZM64.6225 11.9267C65.2097 11.9267 65.6823 11.4541 65.6823 10.8597C65.6823 10.2654 65.2097 9.78564 64.6225 9.78564C64.0425 9.78564 63.5627 10.2654 63.5627 10.8597C63.5627 11.4541 64.0425 11.9267 64.6225 11.9267Z" fill="#111111"/>
<path d="M70.3626 21.2142C72.7041 21.2142 74.1291 19.6818 74.1291 17.1397C74.1291 14.6048 72.697 13.0652 70.3626 13.0652C68.0353 13.0652 66.596 14.6119 66.596 17.1397C66.596 19.6818 68.0138 21.2142 70.3626 21.2142ZM70.3626 19.7247C69.1238 19.7247 68.4148 18.7795 68.4148 17.1397C68.4148 15.507 69.1238 14.5547 70.3626 14.5547C71.5942 14.5547 72.3031 15.507 72.3031 17.1397C72.3031 18.7795 71.6013 19.7247 70.3626 19.7247Z" fill="#111111"/>
<path d="M75.1861 21.0566H76.9619V16.4952C76.9619 15.3424 77.6278 14.6119 78.6877 14.6119C79.7689 14.6119 80.2702 15.2134 80.2702 16.4093V21.0566H82.0461V15.9868C82.0461 14.1179 81.0937 13.0652 79.3464 13.0652C78.1793 13.0652 77.3916 13.6023 77.0192 14.4759H76.8975V13.2228H75.1861V21.0566Z" fill="#111111"/>
</g>
<defs>
<clipPath id="clip0_1_1111">
<rect width="87" height="30" fill="white" transform="translate(0.28125 0.5)"/>
</clipPath>
</defs>
</svg>
